<?xml version="1.0" standalone="no"?>
<!DOCTYPE svg PUBLIC "-//W3C//DTD SVG 20010904//EN"
 "http://www.w3.org/TR/2001/REC-SVG-20010904/DTD/svg10.dtd">
<svg version="1.0" xmlns="http://www.w3.org/2000/svg"
 width="900.000000pt" height="900.000000pt" viewBox="0 0 900.000000 900.000000"
 preserveAspectRatio="xMidYMid meet">
<metadata>
Created by potrace 1.14, written by Peter Selinger 2001-2017
</metadata>
<g transform="translate(0.000000,900.000000) scale(0.100000,-0.100000)"
fill="#000000" stroke="none">
<path d="M2139 7116 c-2 -2 -49 -7 -104 -10 -55 -4 -125 -9 -155 -12 -30 -4
-65 -7 -77 -7 -13 -1 -23 -5 -23 -10 0 -4 -5 -5 -10 -2 -8 5 -80 -5 -200 -29
-97 -20 -269 -71 -337 -102 -17 -8 -34 -14 -38 -14 -3 0 -61 -27 -128 -61
-312 -155 -556 -370 -733 -644 -140 -216 -246 -490 -279 -715 -4 -24 -8 -47
-10 -51 -2 -3 -7 -32 -10 -65 -3 -32 -8 -69 -10 -82 -15 -91 -20 -283 -20
-812 0 -538 4 -696 20 -820 2 -19 7 -54 10 -78 3 -24 7 -53 10 -65 2 -12 7
-38 10 -57 40 -275 173 -582 360 -828 84 -111 226 -255 320 -324 6 -4 24 -18
40 -31 17 -13 45 -32 62 -42 18 -11 33 -23 33 -27 0 -4 4 -8 9 -8 5 0 42 -19
83 -43 147 -87 401 -191 518 -211 14 -3 25 -5 25 -6 0 -1 7 -3 15 -5 120 -24
180 -35 205 -39 75 -11 114 -16 165 -21 30 -3 89 -8 130 -13 99 -9 4837 -9
4960 1 52 4 109 9 125 12 17 2 57 7 90 10 33 3 67 8 75 10 8 2 31 6 50 9 343
51 707 209 967 422 249 204 417 431 546 739 21 50 75 212 83 250 20 93 44 222
49 265 3 30 8 66 10 80 16 101 20 281 20 805 0 330 -4 643 -8 695 -11 130 -17
191 -21 215 -2 11 -7 36 -10 55 -11 61 -15 84 -21 110 -3 14 -7 36 -10 50 -3
14 -9 40 -14 58 -5 17 -8 32 -5 32 3 0 0 9 -6 21 -6 11 -13 28 -15 37 -13 66
-105 274 -174 396 -24 43 -101 158 -110 166 -4 3 -19 23 -36 45 -16 21 -36 47
-45 55 -8 9 -36 39 -62 67 -25 27 -74 74 -108 104 -35 30 -68 59 -74 65 -25
24 -245 168 -258 169 -3 0 -10 3 -14 8 -34 34 -379 171 -480 190 -10 2 -26 7
-34 10 -8 3 -22 6 -30 6 -8 0 -43 7 -76 15 -34 7 -86 17 -115 21 -30 4 -65 9
-79 11 -14 1 -56 6 -95 10 -38 3 -88 9 -110 12 -44 6 -4839 14 -4846 8z m3211
-313 c0 -8 -25 -76 -51 -138 -7 -16 -13 -34 -15 -40 -1 -5 -10 -28 -20 -50
-10 -22 -18 -42 -19 -45 -3 -11 -50 -126 -71 -175 -7 -16 -49 -122 -94 -235
-44 -113 -87 -218 -94 -235 -8 -16 -17 -41 -21 -55 -4 -14 -18 -47 -30 -75
-12 -27 -28 -66 -35 -85 -7 -19 -19 -48 -26 -65 -7 -16 -32 -77 -55 -135 -22
-58 -46 -116 -52 -130 -6 -14 -11 -27 -12 -30 -1 -3 -5 -14 -10 -25 -28 -69
-506 -1263 -547 -1365 -27 -69 -53 -134 -58 -145 -5 -11 -64 -157 -131 -325
-66 -168 -127 -318 -134 -335 -7 -16 -94 -232 -193 -480 l-180 -450 -674 0
c-607 1 -777 4 -903 19 -184 22 -200 25 -310 50 -125 29 -257 76 -385 138 -69
33 -126 64 -128 69 -2 5 -8 9 -13 9 -10 0 -85 51 -154 104 -112 86 -282 279
-346 391 -12 22 -33 58 -46 80 -12 22 -26 47 -29 55 -3 8 -15 35 -26 58 -38
87 -74 197 -93 287 -11 51 -25 123 -29 150 -18 122 -23 168 -32 300 -7 102 -7
1113 0 1190 3 28 7 87 11 131 3 45 7 90 9 101 3 11 7 44 11 74 4 30 8 56 10
59 2 3 6 24 9 47 6 34 16 72 51 193 25 88 133 314 177 375 88 119 135 175 208
247 88 86 190 168 209 168 6 0 14 6 18 13 9 14 27 25 150 89 119 62 297 129
382 145 13 2 28 6 32 8 4 3 24 7 44 11 21 3 47 8 59 10 20 5 55 10 121 18 17
3 50 7 75 10 25 3 78 8 119 11 41 2 76 6 78 9 8 8 3243 7 3243 -1z m1619 -6
c24 -3 74 -8 110 -12 61 -5 79 -7 151 -19 68 -11 110 -19 165 -33 33 -8 67
-16 75 -18 113 -25 371 -143 497 -229 151 -102 225 -172 368 -347 36 -45 118
-184 157 -265 38 -81 102 -263 112 -319 3 -16 10 -52 16 -80 6 -27 12 -63 15
-80 2 -16 6 -46 9 -65 7 -48 16 -150 22 -240 7 -103 6 -1098 0 -1190 -11 -156
-17 -216 -21 -240 -3 -14 -7 -38 -9 -55 -10 -69 -30 -165 -51 -235 -9 -30 -18
-62 -20 -71 -17 -74 -143 -333 -182 -377 -7 -7 -13 -16 -13 -20 0 -4 -10 -19
-23 -34 -12 -14 -31 -39 -42 -54 -38 -54 -191 -202 -265 -258 -104 -78 -84
-64 -170 -112 -19 -10 -42 -24 -50 -31 -8 -6 -17 -12 -20 -12 -3 0 -39 -15
-80 -34 -106 -48 -251 -97 -333 -113 -10 -2 -26 -6 -35 -8 -9 -3 -33 -8 -52
-10 -19 -3 -44 -7 -55 -9 -24 -5 -101 -16 -170 -23 -27 -3 -70 -8 -95 -11 -53
-6 -3050 -15 -3066 -9 -8 3 -1 32 21 86 18 44 35 84 39 87 3 4 6 12 6 20 0 7
9 32 19 56 15 32 104 254 144 357 3 8 62 155 132 325 69 171 127 317 130 326
2 9 12 34 23 55 11 22 21 44 22 49 4 16 102 265 130 330 4 11 31 79 60 150 28
72 55 139 60 150 5 11 55 135 111 275 127 318 353 885 370 925 7 17 13 32 14
35 1 3 7 19 14 35 6 17 28 71 48 120 19 50 41 104 48 120 8 17 32 77 54 135
23 58 46 114 51 125 5 11 59 146 120 300 61 154 115 289 120 300 41 88 72 186
71 223 l-1 43 602 -4 c332 -3 623 -7 647 -10z"/>
<path d="M2936 5878 c-9 -5 -16 -6 -16 -3 0 27 -156 -122 -775 -742 l-715
-716 712 -715 c521 -521 724 -719 754 -732 94 -41 209 5 246 100 15 38 12 114
-6 148 -9 18 -277 293 -596 613 -319 320 -580 585 -580 588 0 4 69 75 153 158
83 84 348 349 588 590 389 390 437 442 445 478 22 111 -24 198 -121 226 -53
16 -71 17 -89 7z"/>
<path d="M5928 5862 c-72 -36 -103 -87 -103 -170 0 -44 4 -67 13 -70 6 -2 10
-7 7 -12 -3 -5 261 -275 586 -600 325 -326 589 -593 587 -595 -2 -2 -267 -269
-589 -592 -633 -634 -617 -616 -604 -710 6 -49 11 -58 54 -107 43 -47 111 -64
181 -45 40 12 114 82 762 732 395 396 718 722 718 725 0 9 -1404 1414 -1435
1436 -19 13 -70 28 -109 31 -10 1 -41 -9 -68 -23z"/>
</g>
</svg>
